# xmcd
#
# Track frame offsets: 
#        150
#        12607
#        26572
#        41032
#        57832
#        71052
#        84720
#        97032
#        106690
#        117655
#        127720
#        138555
#        151927
#        158807
#        170747
#        181575
#        194635
#        206847
#
# Disc length: 2872 seconds
#
# Revision: 4
# Processed by: cddbd v1.5.1PL2 Copyright (c) Steve Scherf et al.
# Submitted via: ExactAudioCopy v0.95b4
#
DISCID=000b3612
DTITLE=Frank Sinatra - Selection of Frank Sinatra - CD 1 (Swing)
DYEAR=1997
DGENRE=Swing
TTITLE0=Anything Goes
TTITLE1=Cheek To Cheek
TTITLE2=The Lady Is A Tramp
TTITLE3=I've Got You Under My Skin
TTITLE4=You Make Me Feel So Young
TTITLE5=Learnin' The Blues
TTITLE6=How Could You Do A Thing Like That To Me
TTITLE7=All Of Me
TTITLE8=Get Happy
TTITLE9=Taking A Chance On Love
TTITLE10=Jeepers Creepers
TTITLE11=The Tender Trap
TTITLE12=Should I
TTITLE13=Something's Gotta Give
TTITLE14=Just In Time
TTITLE15=Brazil
TTITLE16=On The Sunny Side Of The Street
TTITLE17=Lover
EXTD=
EXTT0=
EXTT1=
EXTT2=
EXTT3=
EXTT4=
EXTT5=
EXTT6=
EXTT7=
EXTT8=
EXTT9=
EXTT10=
EXTT11=
EXTT12=
EXTT13=
EXTT14=
EXTT15=
EXTT16=
EXTT17=
PLAYORDER=
